<svg width="24" height="24" viewBox="0 0 24 24" fill="none" xmlns="http://www.w3.org/2000/svg">
<mask id="mask0_503_32201" style="mask-type:alpha" maskUnits="userSpaceOnUse" x="2" y="2" width="20" height="20">
<path fill-rule="evenodd" clip-rule="evenodd" d="M9.49983 3.25C9.49983 2.55579 10.0556 2 10.7498 2H13.2498C13.944 2 14.4998 2.55579 14.4998 3.25V5.45963C15.1986 5.7269 15.8437 6.10296 16.4142 6.56707L18.3216 5.46582C18.9228 5.11871 19.682 5.32215 20.0291 5.92335L21.2791 8.08842C21.6262 8.68962 21.4228 9.44884 20.8216 9.79595L18.9135 10.8976C18.9703 11.2567 18.9998 11.6249 18.9998 12C18.9998 12.3771 18.97 12.7471 18.9126 13.108L20.8314 14.2158C21.4326 14.5629 21.636 15.3221 21.2889 15.9234L20.0389 18.0884C19.6918 18.6896 18.9326 18.8931 18.3314 18.5459L16.4098 17.4365C15.8403 17.899 15.1968 18.2738 14.4998 18.5404V20.75C14.4998 21.4442 13.944 22 13.2498 22H10.7498C10.0556 22 9.49983 21.4442 9.49983 20.75V18.5404C8.80151 18.2733 8.15691 17.8976 7.5867 17.4339L5.6683 18.5415C5.06709 18.8886 4.30788 18.6852 3.96077 18.084L2.71077 15.9189C2.36366 15.3177 2.56709 14.5585 3.1683 14.2114L5.08639 13.104C5.02942 12.7444 4.99983 12.3756 4.99983 12C4.99983 11.6235 5.02956 11.2539 5.08679 10.8935L3.17807 9.7915C2.57686 9.4444 2.37343 8.68518 2.72053 8.08397L3.97053 5.91891C4.31764 5.3177 5.07686 5.11427 5.67807 5.46138L7.58868 6.56447C8.15841 6.10155 8.80232 5.72641 9.49983 5.45963V3.25ZM12 8.5C10.067 8.5 8.5 10.067 8.5 12C8.5 13.933 10.067 15.5 12 15.5C13.933 15.5 15.5 13.933 15.5 12C15.5 10.067 13.933 8.5 12 8.5Z" fill="#121331"/>
</mask>
<g mask="url(#mask0_503_32201)">
<path d="M10.75 2.75H13.25C13.53 2.75 13.75 2.97 13.75 3.25V6.75H10.25V3.25C10.25 2.97 10.47 2.75 10.75 2.75Z" fill="#121331" stroke="#121331" stroke-width="1.5" stroke-linecap="round" stroke-linejoin="round"/>
<path d="M3.37012 8.45908L4.62012 6.29401C4.76012 6.05153 5.06064 5.971 5.30313 6.111L8.33422 7.861L6.58422 10.8921L3.55313 9.14209C3.31064 9.00209 3.23012 8.70156 3.37012 8.45908Z" fill="#121331" stroke="#121331" stroke-width="1.5" stroke-linecap="round" stroke-linejoin="round"/>
<path d="M4.61035 17.7091L3.36035 15.544C3.22035 15.3015 3.30088 15.001 3.54336 14.861L6.57445 13.111L8.32445 16.1421L5.29336 17.8921C5.05088 18.0321 4.75035 17.9516 4.61035 17.7091Z" fill="#121331" stroke="#121331" stroke-width="1.5" stroke-linecap="round" stroke-linejoin="round"/>
<path d="M13.25 21.25H10.75C10.47 21.25 10.25 21.03 10.25 20.75V17.25H13.75V20.75C13.75 21.03 13.53 21.25 13.25 21.25Z" fill="#121331" stroke="#121331" stroke-width="1.5" stroke-linecap="round" stroke-linejoin="round"/>
<path d="M20.6396 15.5482L19.3896 17.7133C19.2496 17.9558 18.9491 18.0363 18.7066 17.8963L15.6755 16.1463L17.4255 13.1152L20.4566 14.8652C20.6991 15.0052 20.7796 15.3058 20.6396 15.5482Z" fill="#121331" stroke="#121331" stroke-width="1.5" stroke-linecap="round" stroke-linejoin="round"/>
<path d="M19.3799 6.29825L20.6299 8.46331C20.7699 8.7058 20.6894 9.00632 20.4469 9.14632L17.4158 10.8963L15.6658 7.86523L18.6969 6.11523C18.9394 5.97523 19.2399 6.05576 19.3799 6.29825Z" fill="#121331" stroke="#121331" stroke-width="1.5" stroke-linecap="round" stroke-linejoin="round"/>
<path d="M12 18.25C15.4518 18.25 18.25 15.4518 18.25 12C18.25 8.54822 15.4518 5.75 12 5.75C8.54822 5.75 5.75 8.54822 5.75 12C5.75 15.4518 8.54822 18.25 12 18.25Z" fill="#121331" stroke="#121331" stroke-width="1.5" stroke-linecap="round" stroke-linejoin="round"/>
</g>
</svg>
