<svg width="25" height="24" viewBox="0 0 25 24" fill="none" xmlns="http://www.w3.org/2000/svg">
<path d="M20.5 8L18.9344 13.0882C18.6762 13.9274 17.9009 14.5 17.0229 14.5H9.12998L7.72998 8H20.5Z" fill="#121331" stroke="#121331" stroke-width="2" stroke-linecap="round" stroke-linejoin="round"/>
<path d="M3.5 5H5.63C6.51 5 7.27 5.64 7.43 6.52L7.73 8" stroke="#121331" stroke-width="2" stroke-linecap="round" stroke-linejoin="round"/>
<path d="M10.5 20.25C11.1904 20.25 11.75 19.6904 11.75 19C11.75 18.3096 11.1904 17.75 10.5 17.75C9.80964 17.75 9.25 18.3096 9.25 19C9.25 19.6904 9.80964 20.25 10.5 20.25Z" fill="#121331" stroke="#121331" stroke-width="1.5" stroke-linecap="round" stroke-linejoin="round"/>
<path d="M17 20.25C17.6904 20.25 18.25 19.6904 18.25 19C18.25 18.3096 17.6904 17.75 17 17.75C16.3096 17.75 15.75 18.3096 15.75 19C15.75 19.6904 16.3096 20.25 17 20.25Z" fill="#121331" stroke="#121331" stroke-width="1.5" stroke-linecap="round" stroke-linejoin="round"/>
</svg>
